<?xml version="1.0" encoding="UTF-8"?>
<svg width="520px" height="519px" viewBox="0 0 520 519" version="1.1" xmlns="http://www.w3.org/2000/svg" xmlns:xlink="http://www.w3.org/1999/xlink">
    <!-- Generator: Sketch 63.1 (92452) - https://sketch.com -->
    <title>android-jetpack-icon</title>
    <desc>Created with Sketch.</desc>
    <defs>
        <path d="M44.25,0.603637072 C46.4023168,-0.639003616 49.1544736,0.098434583 50.3971143,2.25075139 L50.3971143,2.25075139 L70.6290008,37.2920653 C86.242295,30.0336679 103.647932,25.9815135 122,25.9815135 C140.348534,25.9815135 157.751002,30.0321075 173.36198,37.2878727 L193.494311,2.41730605 C194.736951,0.264989242 197.489108,-0.472448957 199.641425,0.77019173 C201.793742,2.01283242 202.53118,4.76498924 201.288539,6.91730605 L181.387722,41.3865926 C218.740885,62.241939 244,102.161935 244,147.981514 L244,318.981514 L0,318.981514 L0,147.981514 C-5.61077915e-15,102.166025 25.2546061,62.2490656 62.6022763,41.3921777 L42.6028857,6.75075139 C41.360245,4.59843458 42.0976832,1.84627776 44.25,0.603637072 Z" id="path-1"></path>
    </defs>
    <g id="Blog-Banners" stroke="none" stroke-width="1" fill="none" fill-rule="evenodd">
        <g id="android-jetpack-icon" transform="translate(281.500000, 237.500000) rotate(-315.000000) translate(-281.500000, -237.500000) translate(115.000000, -21.000000)">
            <g id="droid" transform="translate(45.000000, 0.000000)">
                <mask id="mask-2" fill="white">
                    <use xlink:href="#path-1"></use>
                </mask>
                <use id="Mask" fill="#71D98C" xlink:href="#path-1"></use>
                <path d="M228.5,135.981514 C254.181241,135.981514 275,156.800273 275,182.481514 L275,342.981514 C275,347.399792 271.418278,350.981514 267,350.981514 L190,350.981514 C185.581722,350.981514 182,347.399792 182,342.981514 L182,182.481514 C182,156.800273 202.818759,135.981514 228.5,135.981514 Z" id="Rectangle-Copy-5" fill="#63BC76" mask="url(#mask-2)"></path>
                <path d="M13.5,135.981514 C39.1812409,135.981514 60,156.800273 60,182.481514 L60,342.981514 C60,347.399792 56.418278,350.981514 52,350.981514 L-25,350.981514 C-29.418278,350.981514 -33,347.399792 -33,342.981514 L-33,182.481514 C-33,156.800273 -12.1812409,135.981514 13.5,135.981514 Z" id="Rectangle-Copy-4" fill="#63BC76" mask="url(#mask-2)"></path>
                <path d="M67,81.9815135 C72.5228475,81.9815135 77,86.458666 77,91.9815135 C77,97.504361 72.5228475,101.981514 67,101.981514 C61.4771525,101.981514 57,97.504361 57,91.9815135 C57,86.458666 61.4771525,81.9815135 67,81.9815135 Z M177,81.9815135 C182.522847,81.9815135 187,86.458666 187,91.9815135 C187,97.504361 182.522847,101.981514 177,101.981514 C171.477153,101.981514 167,97.504361 167,91.9815135 C167,86.458666 171.477153,81.9815135 177,81.9815135 Z" id="eyes" fill="#FFFFFF" mask="url(#mask-2)"></path>
            </g>
            <g id="jetpack-right" transform="translate(240.000000, 135.981514)">
                <path d="M46.5,0 C72.1812409,-4.71756741e-15 93,20.8187591 93,46.5 L93,207 C93,211.418278 89.418278,215 85,215 L8,215 C3.581722,215 5.41083001e-16,211.418278 0,207 L0,46.5 C-3.14504494e-15,20.8187591 20.8187591,4.71756741e-15 46.5,0 Z" id="jetpack-thruster" fill="#5383EC"></path>
                <path d="M46.5,380.011405 C66.1061086,380.011405 82,310.106109 82,290.5 C82,270.893891 66.1061086,255 46.5,255 C26.8938914,255 11,270.893891 11,290.5 C11,310.106109 26.8938914,380.011405 46.5,380.011405 Z" id="flame" stroke="#083041" stroke-width="23"></path>
            </g>
            <g id="jetpack-left" transform="translate(0.000000, 135.981514)">
                <path d="M46.5,0 C72.1812409,-4.71756741e-15 93,20.8187591 93,46.5 L93,207 C93,211.418278 89.418278,215 85,215 L8,215 C3.581722,215 5.41083001e-16,211.418278 0,207 L0,46.5 C-3.14504494e-15,20.8187591 20.8187591,4.71756741e-15 46.5,0 Z" id="jetpack-thruster" fill="#5383EC"></path>
                <path d="M46.5,380.011405 C66.1061086,380.011405 82,310.106109 82,290.5 C82,270.893891 66.1061086,255 46.5,255 C26.8938914,255 11,270.893891 11,290.5 C11,310.106109 26.8938914,380.011405 46.5,380.011405 Z" id="flame" stroke="#083041" stroke-width="23"></path>
            </g>
        </g>
    </g>
</svg>