<?xml version="1.0" encoding="UTF-8"?>
<svg width="441px" height="241px" viewBox="0 0 441 241" version="1.1" xmlns="http://www.w3.org/2000/svg" xmlns:xlink="http://www.w3.org/1999/xlink">
    <title>code-passionately-dark</title>
    <defs>
        <linearGradient x1="68.2053758%" y1="4.4408921e-14%" x2="39.0706609%" y2="100%" id="linearGradient-1">
            <stop stop-color="#A47BE4" offset="0%"></stop>
            <stop stop-color="#6441A5" offset="100%"></stop>
        </linearGradient>
    </defs>
    <g id="Page-1" stroke="none" stroke-width="1" fill="none" fill-rule="evenodd">
        <g id="code-passionately-dark" transform="translate(0.059461, 0.355773)" fill-rule="nonzero">
            <path d="M54.6122031,217.401755 C64.1024753,219.386084 75.2319765,220.033148 88.0007064,219.342947 C97.4909787,218.825296 105.428297,217.186067 111.812662,214.42526 C116.816624,212.354655 119.318605,210.284051 119.318605,208.213446 C119.318605,205.79774 116.859762,203.727135 111.942075,202.001631 C107.024389,200.276127 101.028262,199.413375 93.9536954,199.413375 C87.0516792,199.413375 81.7026166,200.017301 77.9065077,201.225154 L77.9065077,201.225154 L76.3535541,200.966329 C75.1457013,200.276127 73.5927476,199.3271 71.6946932,198.119247 C69.7966387,196.911394 68.2436851,194.754514 67.0358322,191.648607 C65.8279794,188.5427 65.224053,185.350517 65.224053,182.072059 C65.224053,176.550446 66.6044562,170.424907 69.3652627,163.695441 C69.8829139,162.142488 73.4201972,154.636545 79.9771126,141.177613 C84.4634231,132.032442 87.1379544,124.267674 88.0007064,117.883309 C88.3458072,115.812704 86.4477528,113.914649 82.306543,112.189145 C87.3105048,108.910688 91.5379897,105.373404 94.9889978,101.577296 C95.6791994,100.887094 96.0243002,100.110617 96.0243002,99.2478651 C96.0243002,97.8674618 94.8164474,96.3145082 92.4007417,94.5890042 C85.4987255,90.1026936 80.2359382,86.8242359 76.6123797,84.7536311 C72.2986196,81.8202742 69.1927123,78.3692661 67.2946578,74.4006068 C65.7417042,69.2240947 65.7417042,64.2201329 67.2946578,59.3887216 C69.3652627,54.9024111 72.9888212,50.2435501 78.1653333,45.4121388 L78.1653333,45.4121388 L78.6829845,45.1533132 L78.9418102,44.8944876 C83.4281207,41.2709291 88.259532,38.251297 93.4360442,35.8355913 L93.4360442,35.8355913 L94.7301722,35.3179401 C99.7341339,33.2473353 102.236115,31.0904552 102.236115,28.8473 C102.236115,26.4315943 99.7341339,24.3609894 94.7301722,22.6354854 C89.0360088,20.7374309 82.9104695,19.7884037 76.3535541,19.7884037 C69.7966387,19.7884037 63.9299249,20.7374309 58.7534128,22.6354854 C48.9180397,26.4315943 39.6865931,32.0394824 31.0590728,39.4591498 C21.3962502,47.5690189 16.219738,55.7651631 15.5295364,64.0475825 C14.8393348,73.7104052 18.1177925,81.6477238 25.3649095,87.8595384 C29.108637,90.5217446 32.4311952,92.8229486 35.332584,94.7631502 L35.9704043,95.1883637 C38.8093977,97.0750835 41.2272217,98.6008011 43.2238764,99.7655163 C39.9454187,102.871424 34.7689065,106.149881 27.69434,109.600889 L27.69434,109.600889 L25.1060839,110.636192 C22.6903782,111.671494 20.7923238,112.447971 19.4119205,112.965622 L19.4119205,112.965622 L7.5059426,117.883309 C2.50198087,119.781363 0,121.851968 0,124.095123 C0,126.510829 2.50198087,128.581434 7.5059426,130.306938 C15.2707108,133.067744 23.6394054,133.930496 32.6120265,132.895194 C26.9178631,145.146273 22.6903782,154.377719 19.9295717,160.589534 C16.4785636,169.217054 14.7530596,176.464171 14.7530596,182.330885 C14.7530596,187.679947 15.9177748,192.554496 18.2472053,196.954532 C20.5766358,201.354567 24.8472583,205.366364 31.0590728,208.989922 C37.2708874,212.613481 45.1219308,215.417425 54.6122031,217.401755 Z" id="{-copy" fill="#FFFFFF"></path>
            <path d="M327.312671,216.61228 C340.081401,218.682885 351.556003,217.906408 361.736477,214.28285 C377.438564,208.588686 391.501422,202.031771 403.925051,194.612103 C420.66244,184.259079 432.395868,173.647229 439.125333,162.776554 C440.333186,160.705949 439.556709,158.89417 436.795903,157.341216 C432.309592,155.098061 424.631099,151.647053 413.760424,146.988192 C403.7525,142.846982 396.160283,139.223424 390.98377,136.117516 L390.98377,136.117516 L389.171991,135.082214 L388.65434,134.823388 C384.168029,131.890031 381.062122,129.04295 379.336618,126.282143 C378.646416,124.384089 378.646416,122.57231 379.336618,120.846805 C380.19937,119.466402 381.407223,118.172274 382.960177,116.964421 C383.477828,116.619321 383.909204,116.27422 384.254305,115.929119 C386.842561,114.548716 389.948468,113.168312 393.572026,111.787909 L393.572026,111.787909 L394.866155,111.270258 L395.383806,111.011432 C400.387767,109.458479 402.889748,107.905525 402.889748,106.352571 C402.889748,105.66237 402.544648,105.058443 401.854446,104.540792 C398.230887,101.779986 391.673972,100.140757 382.1837,99.6231057 L382.1837,99.6231057 L380.889572,99.3642801 C380.371921,99.1917297 379.940545,99.0191793 379.595444,98.8466289 L379.595444,98.8466289 L378.818967,98.5878033 C386.756286,89.2700814 393.054375,82.4543404 397.713236,78.1405803 C402.199547,73.1366186 405.73683,68.5208952 408.325086,64.2934103 C410.913342,60.0659254 412.20747,56.3129541 412.20747,53.0344964 C412.20747,43.3716738 403.925051,35.6069056 387.360212,29.7401918 C372.348327,24.3911292 356.042313,21.6303228 338.442172,21.4577724 C331.540156,21.4577724 325.587167,22.147974 320.583205,23.5283772 C315.579244,24.9087805 313.077263,26.5480093 313.077263,28.4460638 C313.077263,30.1715678 315.579244,31.7245214 320.583205,33.1049247 C324.896965,34.3127775 330.246028,35.0029791 336.630393,35.1755295 L336.630393,35.1755295 L337.665695,35.1755295 C339.56375,35.5206303 341.979455,36.1245568 344.912812,36.9873088 C345.775564,37.3324096 347.242243,38.0226112 349.312848,39.0579136 C350.003049,39.2304641 350.779526,39.5324273 351.642278,39.9638033 C352.50503,40.3951793 353.195232,40.8696929 353.712883,41.3873441 C356.473689,43.2853986 358.716845,45.614829 360.442349,48.3756355 C361.995302,52.3442948 361.822752,56.1835413 359.924698,59.893375 C358.026643,63.6032087 355.438387,67.2699048 352.159929,70.8934633 C350.952077,72.2738666 348.01872,75.3797738 343.359859,80.2111852 C334.732338,89.0112558 329.642102,95.05052 328.089148,98.3289777 C326.881295,100.399583 327.87346,102.211362 331.065642,103.764315 C334.257825,105.317269 337.924521,106.697672 342.065731,107.905525 C332.748009,112.564386 328.089148,117.827173 328.089148,123.693887 C328.089148,128.007647 331.626431,132.666508 338.700998,137.67047 C344.740262,141.98423 352.850131,146.384265 363.030605,150.870576 C371.485575,154.666685 379.940545,158.376519 388.395514,162.000077 C382.528801,170.455047 374.246381,178.219815 363.548256,185.294382 L363.548256,185.294382 L360.96,187.106161 L360.183523,187.623812 C347.932444,195.04348 333.869586,201.600395 317.994949,207.294558 C315.751794,208.15731 314.630216,209.365163 314.630216,210.918117 C314.630216,213.333822 318.857701,215.231877 327.312671,216.61228 Z" id="}-copy" fill="#FFFFFF"></path>
            <path d="M148.963366,105.839516 C139.598882,84.9877804 137.287566,65.1165576 142.029418,46.2258476 L142.17527,45.6537019 C142.26153,45.3156265 142.348367,44.9797674 142.435779,44.6461247 L142.699743,43.6518455 L142.699743,43.6518455 L142.967163,42.6708645 C143.056879,42.3460871 143.147171,42.0235261 143.238038,41.7031814 L143.512369,40.7487965 C143.558378,40.5908405 143.604532,40.4334386 143.650829,40.2765908 L143.930343,39.342153 C144.024089,39.0328901 144.118412,38.7258435 144.213311,38.4210132 L144.499734,37.5131715 L144.499734,37.5131715 L144.789613,36.6186279 C145.032619,35.8787158 145.279223,35.1526558 145.529427,34.440448 L145.831399,33.5924476 C145.983249,33.171772 146.136394,32.7560831 146.290836,32.345381 L146.601446,31.5306258 C146.653502,31.3959415 146.705702,31.2618112 146.758047,31.128235 L147.07384,30.3334269 L147.07384,30.3334269 L147.393088,29.551917 C147.928048,28.260482 148.477404,27.0244557 149.041157,25.8438381 L149.381137,25.1421166 C152.228697,19.3498456 155.436177,14.9427906 159.003576,11.9209515 C165.995679,5.9981469 174.154367,2.26376575 183.47964,0.717808025 C190.057965,-0.353599806 196.469553,-0.225611663 202.714404,1.10177245 C214.191428,3.54128921 223.089071,9.40166057 229.407334,18.6828866 C232.331234,23.1852968 234.641168,28.0864206 236.337137,33.3862579 C245.914301,16.5465815 255.48987,9.67346475 265.063845,12.7669076 C270.827635,14.6976603 275.933032,19.3109516 280.380035,26.6067815 C285.987304,35.9132862 289.066962,47.1522047 289.619009,60.323537 C290.116413,69.6023382 289.306795,79.2207418 287.190156,89.1787479 C283.817883,105.044046 277.701917,119.708735 268.842258,133.172816 L268.744174,133.328754 L268.744174,133.328754 L268.606227,133.536859 L268.606227,133.536859 L268.429194,133.796093 L268.429194,133.796093 L268.092053,134.278536 L268.092053,134.278536 L267.512966,135.091048 L267.512966,135.091048 L266.984869,135.822827 L266.984869,135.822827 L265.698862,137.585923 L265.698862,137.585923 L264.123883,139.72503 L264.123883,139.72503 L261.949112,142.658472 L261.949112,142.658472 L259.059582,146.53378 L259.059582,146.53378 L255.352981,151.480604 L255.352981,151.480604 L252.647188,155.079044 L252.647188,155.079044 L249.778041,158.885205 L249.778041,158.885205 L245.734591,164.234732 L245.734591,164.234732 L240.399834,171.26954 L240.399834,171.26954 L235.406716,177.831451 L235.406716,177.831451 L231.444573,183.023163 L231.444573,183.023163 L230.305133,184.51364 L230.305133,184.51364 L230.398905,185.973872 L230.398905,185.973872 L230.475295,187.267879 L230.475295,187.267879 L230.542447,188.567475 L230.542447,188.567475 L230.575928,189.357249 L230.575928,189.357249 L230.597336,190.031603 L230.597336,190.031603 L230.605771,190.487988 L230.605771,190.487988 L230.60648,190.870508 L230.60648,190.870508 L230.601941,191.108926 L230.601941,191.108926 L230.593056,191.305798 L230.593056,191.305798 L230.579825,191.461124 L230.579825,191.461124 L230.568589,191.541595 L230.568589,191.541595 L230.555422,191.603601 L230.555422,191.603601 L230.344762,192.328428 L230.344762,192.328428 L230.040148,193.351457 L230.040148,193.351457 L229.837349,194.014748 L229.837349,194.014748 L229.634771,194.663056 L229.634771,194.663056 L229.432414,195.296382 L229.432414,195.296382 L229.230278,195.914724 L229.230278,195.914724 L228.927488,196.814146 L228.927488,196.814146 L228.725905,197.395032 L228.725905,197.395032 L228.524542,197.960935 L228.524542,197.960935 L228.323401,198.511855 L228.323401,198.511855 L228.122481,199.047793 C228.089013,199.135868 228.055554,199.223318 228.022104,199.310143 L227.821515,199.823607 L227.821515,199.823607 L227.621148,200.322088 C227.587772,200.40392 227.554405,200.485127 227.521047,200.56571 L227.321011,201.041717 L227.321011,201.041717 L227.121196,201.502741 C227.087912,201.578329 227.054637,201.653294 227.021372,201.727634 L226.821888,202.166184 C226.78866,202.238027 226.75544,202.309246 226.72223,202.37984 L226.523078,202.795916 L226.523078,202.795916 L226.324148,203.197009 L226.324148,203.197009 L226.125438,203.58312 C226.092338,203.646223 226.059248,203.708702 226.026166,203.770556 L225.827789,204.134192 L225.827789,204.134192 L225.629632,204.482846 C225.497601,204.710287 225.365717,204.92774 225.233981,205.135205 L225.036488,205.43891 C224.970693,205.537648 224.904936,205.633889 224.839215,205.727632 L224.642164,206.001372 C223.296401,207.820736 221.966123,208.590684 220.651328,208.311216 C220.144989,208.20359 219.590135,207.909247 218.986767,207.428186 C217.86678,206.256725 216.717067,205.018581 215.537626,203.713755 L213.703542,206.080397 L213.703542,206.080397 L209.681209,211.252779 L209.681209,211.252779 L206.674087,215.100948 L206.674087,215.100948 L204.603229,217.739825 L204.603229,217.739825 L202.604753,220.276281 L202.604753,220.276281 L201.062916,222.225231 L201.062916,222.225231 L199.212837,224.553066 L199.212837,224.553066 L197.455261,226.751521 L197.455261,226.751521 L196.120631,228.410664 L196.120631,228.410664 L194.853481,229.975914 L194.853481,229.975914 L194.246361,230.721789 L194.246361,230.721789 L193.08733,232.136957 L193.08733,232.136957 L192.268175,233.1289 L192.268175,233.1289 L191.493704,234.059016 L191.493704,234.059016 L190.765469,234.925227 L190.765469,234.925227 L190.085021,235.725454 L190.085021,235.725454 L189.658705,236.221253 L189.658705,236.221253 L189.254778,236.686186 L189.254778,236.686186 L188.691872,237.324362 L188.691872,237.324362 L188.345928,237.709431 L188.345928,237.709431 L188.023984,238.061478 L188.023984,238.061478 L187.726497,238.379885 C187.67898,238.430115 187.632501,238.478918 187.587069,238.526281 L187.327133,238.793074 C186.750311,239.374786 186.382623,239.669197 186.250358,239.642924 C185.794653,239.54422 185.461988,238.92211 185.252363,237.774752 L185.207805,237.511137 L185.207805,237.511137 L185.167298,237.230231 L185.167298,237.230231 L185.130842,236.932032 L185.130842,236.932032 L185.098436,236.616541 L185.098436,236.616541 L185.070081,236.283758 C185.065693,236.226853 185.061473,236.169228 185.057423,236.110882 L185.035144,235.752161 L185.035144,235.752161 L185.016915,235.376148 C185.014215,235.312038 185.011683,235.247208 185.00932,235.181657 L184.997168,234.779706 L184.997168,234.779706 L184.989067,234.360463 L184.989067,234.360463 L184.985016,233.923927 L184.985016,233.923927 L184.985016,233.4701 L184.985016,233.4701 L184.989067,232.99898 L184.989067,232.99898 L184.997168,232.510568 L184.997168,232.510568 L185.00932,232.004865 L185.00932,232.004865 L185.035144,231.213886 L185.035144,231.213886 L185.057423,230.664952 L185.057423,230.664952 L185.098436,229.809128 L185.098436,229.809128 L185.130842,229.216964 L185.130842,229.216964 L185.207805,227.980759 L185.207805,227.980759 L185.276161,227.008214 L185.276161,227.008214 L185.38148,225.650964 L185.38148,225.650964 L185.471102,224.587636 L185.471102,224.587636 L185.569838,223.4854 L185.569838,223.4854 L185.677688,222.344256 L185.677688,222.344256 L185.794653,221.164206 L185.794653,221.164206 L185.920731,219.945248 L185.920731,219.945248 L186.055924,218.687383 L186.055924,218.687383 L186.250358,216.949707 L186.250358,216.949707 L189.86842,211.841339 L189.86842,211.841339 L192.691924,207.8412 L192.691924,207.8412 L195.452363,203.917999 L195.452363,203.917999 L198.149738,200.071738 L198.149738,200.071738 L200.78405,196.302415 L200.78405,196.302415 L203.355298,192.610031 L203.355298,192.610031 L204.617273,190.792692 L204.617273,190.792692 L203.493378,189.380822 C203.304933,189.142975 203.115925,188.903861 202.926351,188.663478 L201.782138,187.205971 C201.590307,186.960518 201.397912,186.713797 201.204952,186.465809 L200.040415,184.962668 L200.040415,184.962668 L198.862327,183.429108 C198.467372,182.912852 198.070158,182.391526 197.670684,181.865131 L196.092996,179.777299 L196.092996,179.777299 L194.214574,177.281162 L194.214574,177.281162 L192.871232,175.49028 L192.871232,175.49028 L189.823138,171.40738 L189.823138,171.40738 L187.429851,168.180893 L187.429851,168.180893 L184.843702,164.670931 L184.843702,164.670931 L182.44306,161.387051 L182.44306,161.387051 L180.051353,158.084435 L180.051353,158.084435 L178.060566,155.301826 L178.060566,155.301826 L176.927001,153.689637 L176.927001,153.689637 L176.834476,153.553326 L176.834476,153.553326 L176.732108,153.425087 L176.732108,153.425087 L176.563306,153.201567 L176.563306,153.201567 L176.376206,152.940652 L176.376206,152.940652 L176.170805,152.642344 L176.170805,152.642344 L175.947106,152.306641 L175.947106,152.306641 L175.620374,151.800868 L175.620374,151.800868 L175.166211,151.075167 L175.166211,151.075167 L174.869314,150.589887 L174.869314,150.589887 L174.444985,149.884678 L174.444985,149.884678 L174.10539,149.312146 L174.10539,149.312146 L173.3713,148.054897 L173.3713,148.054897 L172.841242,147.133633 L172.841242,147.133633 L172.132921,145.888568 L172.132921,145.888568 L171.215838,144.257377 L171.215838,144.257377 L170.76017,143.440351 L170.342826,142.812291 L170.342826,142.812291 L169.517596,141.564612 L169.517596,141.564612 L168.704978,140.328187 L168.704978,140.328187 L167.509696,138.49465 L167.509696,138.49465 L166.728605,137.286359 L166.728605,137.286359 L165.960125,136.089322 L165.960125,136.089322 L164.831051,134.314867 L164.831051,134.314867 L164.094099,133.145964 C163.972324,132.952085 163.851075,132.758674 163.730352,132.565733 L163.012316,131.413711 L163.012316,131.413711 L162.306891,130.272942 L162.306891,130.272942 L161.614078,129.143428 L161.614078,129.143428 L160.933875,128.025167 L160.933875,128.025167 L160.266284,126.91816 C160.15607,126.734597 160.046381,126.551502 159.937217,126.368877 L159.288543,125.278751 L159.288543,125.278751 L158.652479,124.199878 L158.652479,124.199878 L158.029026,123.132259 L158.029026,123.132259 L157.418184,122.075894 L157.418184,122.075894 L156.819954,121.030783 L156.819954,121.030783 L156.234334,119.996926 L156.234334,119.996926 L155.661326,118.974322 C155.566875,118.804826 155.47295,118.635798 155.37955,118.46724 L154.825458,117.461517 C154.734161,117.294834 154.643388,117.128621 154.553142,116.962876 L154.017966,115.974033 L154.017966,115.974033 L153.495402,114.996445 C153.409359,114.834451 153.323841,114.672926 153.238849,114.511871 L152.735201,113.551163 L152.735201,113.551163 L152.244164,112.601708 C152.163376,112.444404 152.083113,112.287568 152.003375,112.131201 L151.531255,111.198628 C151.453619,111.044137 151.376509,110.890115 151.299924,110.736561 L150.846721,109.820868 L150.846721,109.820868 L150.406128,108.916429 C150.333747,108.766627 150.261891,108.617294 150.190561,108.46843 L149.768885,107.580871 L149.768885,107.580871 L149.35982,106.704567 C149.225567,106.414341 149.093416,106.12599 148.963366,105.839516 Z M170.836107,55.0782284 C168.633392,57.9244857 167.584486,66.287312 170.723572,72.4337759 L170.836107,72.6497771 L171.380364,73.8238942 L171.847499,74.676741 L171.847499,74.676741 L172.343008,75.5642051 L172.343008,75.5642051 L172.689111,76.1750796 L172.689111,76.1750796 L173.047825,76.8013396 L173.047825,76.8013396 L173.609541,77.7695774 C173.67353,77.8790826 173.738045,77.9892288 173.803085,78.1000161 L174.402634,79.1144103 L174.402634,79.1144103 L175.030557,80.1634217 L175.030557,80.1634217 L175.464936,80.8819946 L175.464936,80.8819946 L176.140151,81.9887016 L176.140151,81.9887016 L176.606057,82.7457381 L176.606057,82.7457381 L177.328562,83.9101406 L177.328562,83.9101406 L177.825996,84.7056407 L177.825996,84.7056407 L178.595792,85.9277387 L178.595792,85.9277387 L179.124752,86.7617026 L179.124752,86.7617026 L180.220507,88.4757866 L180.220507,88.4757866 L181.075426,89.8017365 L181.075426,89.8017365 L182.21188,91.5506195 L182.21188,91.5506195 L182.910924,92.6193204 L182.910924,92.6193204 L183.990455,94.260151 L183.990455,94.260151 L185.107147,95.9463167 L185.107147,95.9463167 L186.260997,97.6778174 L186.260997,97.6778174 L187.857268,100.057006 L187.857268,100.057006 L189.519601,102.516791 L189.519601,102.516791 L190.809703,104.41452 C191.286165,105.101704 191.712521,105.8324 192.088768,106.606606 L193.325861,108.34724 L193.325861,108.34724 L196.526647,112.893115 L196.526647,112.893115 L200.992934,119.253792 L200.992934,119.253792 L203.588931,122.928019 L203.588931,122.928019 L204.943269,124.833367 L204.943269,124.833367 L206.335371,126.782113 L206.335371,126.782113 L207.765391,128.772688 L207.765391,128.772688 L208.494669,129.783171 L208.494669,129.783171 L210.35963,132.352125 L210.35963,132.352125 L211.507344,133.921828 L211.507344,133.921828 L213.071289,136.046447 L213.071289,136.046447 L214.269578,137.662813 L214.269578,137.662813 L215.489649,139.298074 L215.489649,139.298074 L216.731569,140.951568 L216.731569,140.951568 L217.995402,142.622633 L217.995402,142.622633 L219.281212,144.310607 L219.281212,144.310607 L220.150661,145.44499 L220.150661,145.44499 L221.029925,146.586398 L221.029925,146.586398 L222.36727,148.311252 L222.36727,148.311252 L223.726808,150.050809 L223.726808,150.050809 L224.645528,151.218355 L224.645528,151.218355 L225.574161,152.391945 L225.574161,152.391945 L226.512725,153.571383 L226.512725,153.571383 L227.46124,154.756473 C227.620156,154.954448 227.779487,155.15265 227.939235,155.351076 L228.017805,156.248505 L228.017805,156.248505 L229.019452,154.719005 L229.019452,154.719005 L230.001777,153.213105 L230.001777,153.213105 L230.964781,151.7308 L230.964781,151.7308 L231.908465,150.272085 L231.908465,150.272085 L232.832831,148.836955 L232.832831,148.836955 L233.737879,147.425405 L233.737879,147.425405 L235.059236,145.352282 L235.059236,145.352282 L235.915998,143.999661 L235.915998,143.999661 L236.337137,143.332187 C236.67802,142.791196 237.015037,142.254604 237.348232,141.722415 L238.336391,140.13906 L238.336391,140.13906 L239.301874,138.582142 L239.301874,138.582142 L240.244939,137.051679 L240.244939,137.051679 L241.165845,135.547694 L241.165845,135.547694 L242.06485,134.070205 L242.06485,134.070205 L242.942213,132.619234 L242.942213,132.619234 L243.798191,131.194799 L243.798191,131.194799 L244.633045,129.796922 L244.633045,129.796922 L245.447031,128.425623 L245.447031,128.425623 L246.240409,127.080921 L246.240409,127.080921 L247.013437,125.762837 L247.013437,125.762837 L247.766374,124.471391 L247.766374,124.471391 L248.858673,122.584212 L248.858673,122.584212 L249.562512,121.359449 L249.562512,121.359449 L250.247164,120.161394 L250.247164,120.161394 L250.912888,118.990068 L250.912888,118.990068 L251.559942,117.845491 L251.559942,117.845491 L252.188585,116.727683 L252.188585,116.727683 L253.097594,115.101207 L253.097594,115.101207 L253.68134,114.050409 L253.68134,114.050409 L254.796571,112.029353 L254.796571,112.029353 L255.843844,110.115816 L255.843844,110.115816 L257.06052,107.87534 L257.06052,107.87534 L260.650524,101.20761 L260.650524,101.20761 L261.445636,99.7451436 L261.445636,99.7451436 L261.883884,98.9492508 L261.883884,98.9492508 L262.294083,98.2146313 L262.294083,98.2146313 L262.552398,97.7589593 L262.552398,97.7589593 L262.798893,97.3305702 L262.798893,97.3305702 L263.033827,96.9294843 C263.072034,96.864913 263.10977,96.8014802 263.14704,96.7391862 L263.365117,96.3790927 L263.365117,96.3790927 L263.572279,96.0463527 C263.60591,95.9931766 263.639098,95.9411411 263.671847,95.8902465 L263.863122,95.5985746 L263.863122,95.5985746 L264.003068,95.362443 L264.003068,95.362443 L264.416561,94.6819122 L264.416561,94.6819122 L264.92095,93.8725216 L264.92095,93.8725216 L265.516235,92.9342709 L265.516235,92.9342709 L266.350559,91.6382751 L266.350559,91.6382751 L266.657754,91.1650414 L267.072362,90.4593453 L267.369376,89.7167511 L267.369376,89.7167511 L267.626174,89.09013 L267.626174,89.09013 L267.912148,88.4037872 L267.912148,88.4037872 L268.338829,87.3957631 L268.338829,87.3957631 L268.692877,86.5700696 L269.12338,84.5447124 L269.082042,83.9839873 L269.082042,83.9839873 L269.039911,83.4890625 L269.039911,83.4890625 L269.011384,83.1956683 L269.011384,83.1956683 L268.967932,82.8104106 L268.967932,82.8104106 L268.938524,82.5901278 L268.938524,82.5901278 L268.908764,82.3990896 L268.908764,82.3990896 L268.878651,82.237296 C268.873603,82.2127675 268.868541,82.1894574 268.863463,82.1673659 L268.848187,82.104747 L268.557099,80.9844426 C268.071952,79.1172688 267.532993,77.5032645 266.940221,76.1424299 L266.696185,75.5883434 L266.696185,75.5883434 L266.544616,75.2513172 L266.544616,75.2513172 L266.333943,74.794325 L266.333943,74.794325 L266.204616,74.5220283 L266.204616,74.5220283 L266.084186,74.2756235 L266.084186,74.2756235 L265.920222,73.9545634 L265.920222,73.9545634 L265.822034,73.7728881 L265.822034,73.7728881 L265.732743,73.6171047 C265.704463,73.5694922 265.677665,73.5261949 265.652349,73.487213 C262.72845,68.9848028 259.740141,65.6153363 256.687423,63.3788135 C254.769692,62.4419712 252.846662,61.945016 250.918334,61.8879478 C249.05116,62.3730942 247.681357,63.0080612 246.808924,63.7928489 C246.003601,64.5172684 245.365017,65.1643968 244.893172,65.7342342 L244.778684,65.8750834 L244.364076,66.5807794 C241.126373,71.3611482 238.822211,76.4227234 237.451591,81.765505 L237.195213,82.7825902 L237.195213,82.7825902 L236.820656,84.2436514 L236.820656,84.2436514 L236.454191,85.6500664 L236.454191,85.6500664 L236.095819,87.0018354 L236.095819,87.0018354 L235.8614,87.8726558 L235.8614,87.8726558 L235.516515,89.133348 L235.516515,89.133348 L235.179723,90.3393941 L235.179723,90.3393941 L234.851023,91.4907942 L234.851023,91.4907942 L234.636386,92.2280353 L234.636386,92.2280353 L234.321174,93.2883586 L234.321174,93.2883586 C233.42225,96.2725814 232.005368,99.4113171 230.07053,102.704565 C229.884575,103.035201 229.699638,103.353917 229.515717,103.660713 L229.240597,104.111965 L229.240597,104.111965 L228.967003,104.545338 C228.921531,104.616076 228.876123,104.68607 228.830778,104.755318 L228.559472,105.16187 C226.304939,108.475297 224.209263,109.926168 222.272446,109.514485 C221.481291,109.34632 220.753198,108.881472 220.088167,108.11994 L219.956002,107.963678 C217.573907,105.167833 216.523711,100.64933 216.805415,94.4081691 L216.837419,93.788729 C216.849519,93.5803971 216.86305,93.3702135 216.878013,93.158178 L216.927198,92.516516 C216.953939,92.1929072 216.9839,91.8651319 217.017083,91.53319 L217.087745,90.8637507 C217.125223,90.5262533 217.165923,90.1845893 217.209845,89.8387587 L217.301982,89.141542 C217.350199,88.790156 217.401637,88.4346033 217.456297,88.0748841 L217.569911,87.3498901 C217.589563,87.2281318 217.609572,87.1059106 217.62994,86.9832265 L217.75644,86.2415661 L217.75644,86.2415661 L217.891531,85.4887948 L217.891531,85.4887948 L218.035213,84.7249125 C218.059876,84.5966729 218.084896,84.4679703 218.110275,84.3388048 L218.266842,83.5582561 L218.266842,83.5582561 L218.432,82.7665965 L219.293006,78.7158822 L219.235895,78.1892274 L219.235895,78.1892274 L219.18687,77.6936922 L219.18687,77.6936922 L219.14593,77.2292766 C219.139781,77.1544673 219.133968,77.0809546 219.128493,77.0087386 L219.099682,76.5910024 C219.095554,76.5239729 219.091763,76.4582402 219.088308,76.393804 L219.071626,76.0227471 L219.071626,76.0227471 C218.404218,73.740501 217.531897,71.337865 216.454662,68.814839 L216.22069,68.2723479 L216.021333,67.9653654 C212.41778,62.1973368 208.488392,57.9622453 204.233168,55.2600908 L203.942535,55.0782284 C200.347834,52.7832055 196.446082,51.1610511 192.237277,50.2117653 L191.179175,49.9808121 L191.179175,49.9808121 L190.606172,49.8505421 L190.606172,49.8505421 L190.048782,49.7189554 L190.048782,49.7189554 L189.506429,49.5867592 L189.506429,49.5867592 L188.978535,49.4546606 L188.978535,49.4546606 L188.464524,49.3233668 L188.464524,49.3233668 L186.307808,48.7614658 L186.307808,48.7614658 L185.639695,48.5921076 L185.639695,48.5921076 L185.206713,48.4862486 L185.206713,48.4862486 L184.782999,48.3868519 L184.782999,48.3868519 L184.367977,48.2946247 L184.367977,48.2946247 L183.96107,48.2102741 C179.393257,47.3016065 176.277755,48.0467543 170.836107,55.0782284 Z" id="Shape-Copy" fill="url(#linearGradient-1)"></path>
        </g>
    </g>
</svg>